<svg xmlns="http://www.w3.org/2000/svg" viewBox="0 0 961 573"><defs><style>.cls-1{fill:#fff;}.cls-2{fill:#0a9aff;}</style></defs><title>faceta cima predio modelo creatorAtivo 10</title><g id="Camada_2" data-name="Camada 2"><g id="Camada_1-2" data-name="Camada 1"><rect class="cls-1" width="961" height="573"/><rect class="cls-2" x="22" y="442.42" width="63.54" height="109.58"/><rect class="cls-2" x="22" y="302.94" width="63.54" height="109.58"/><rect class="cls-2" x="22" y="163.47" width="63.54" height="109.58"/><rect class="cls-2" x="22" y="24" width="63.54" height="109.58"/><rect class="cls-2" x="116.83" y="442.42" width="63.54" height="109.58"/><rect class="cls-2" x="116.83" y="302.94" width="63.54" height="109.58"/><rect class="cls-2" x="116.83" y="163.47" width="63.54" height="109.58"/><rect class="cls-2" x="116.83" y="24" width="63.54" height="109.58"/><rect class="cls-2" x="211.66" y="442.42" width="63.54" height="109.58"/><rect class="cls-2" x="211.66" y="302.94" width="63.54" height="109.58"/><rect class="cls-2" x="211.66" y="163.47" width="63.54" height="109.58"/><rect class="cls-2" x="211.66" y="24" width="63.54" height="109.58"/><rect class="cls-2" x="306.49" y="442.42" width="63.54" height="109.58"/><rect class="cls-2" x="306.49" y="302.94" width="63.54" height="109.58"/><rect class="cls-2" x="306.49" y="163.47" width="63.54" height="109.58"/><rect class="cls-2" x="306.49" y="24" width="63.54" height="109.58"/><rect class="cls-2" x="401.32" y="442.42" width="63.54" height="109.58"/><rect class="cls-2" x="401.32" y="302.94" width="63.54" height="109.58"/><rect class="cls-2" x="401.32" y="163.47" width="63.54" height="109.58"/><rect class="cls-2" x="401.32" y="24" width="63.54" height="109.58"/><rect class="cls-2" x="496.15" y="442.42" width="63.54" height="109.58"/><rect class="cls-2" x="496.15" y="302.94" width="63.54" height="109.58"/><rect class="cls-2" x="496.15" y="163.47" width="63.54" height="109.58"/><rect class="cls-2" x="496.15" y="24" width="63.54" height="109.58"/><rect class="cls-2" x="590.98" y="442.42" width="63.54" height="109.58"/><rect class="cls-2" x="590.98" y="302.94" width="63.54" height="109.58"/><rect class="cls-2" x="590.98" y="163.47" width="63.54" height="109.58"/><rect class="cls-2" x="590.98" y="24" width="63.54" height="109.58"/><rect class="cls-2" x="685.81" y="442.42" width="63.54" height="109.58"/><rect class="cls-2" x="685.81" y="302.94" width="63.54" height="109.58"/><rect class="cls-2" x="780.63" y="442.42" width="63.54" height="109.58"/><rect class="cls-2" x="780.63" y="302.94" width="63.54" height="109.58"/><rect class="cls-2" x="875.46" y="442.42" width="63.54" height="109.58"/><rect class="cls-2" x="875.46" y="302.94" width="63.54" height="109.58"/></g></g></svg>