<svg width="967" height="966" viewBox="0 0 967 966" fill="none" xmlns="http://www.w3.org/2000/svg">
<path d="M175.704 257.17L348.023 36.3141L546.704 273.314" stroke="#0c3522" stroke-width="25" stroke-linecap="round" stroke-linejoin="round"/>
<path d="M691.704 13.3141L891.704 249.314" stroke="#0c3522" stroke-width="25" stroke-linecap="round" stroke-linejoin="round"/>
<path d="M691.704 13.3141L350.704 30.3141" stroke="#0c3522" stroke-width="25" stroke-linecap="round" stroke-linejoin="round"/>
<path d="M176.704 264.314L539.538 273.314L892.704 255.314" stroke="#0c3522" stroke-width="25" stroke-linecap="round" stroke-linejoin="round"/>
<path d="M206.955 282.314L176.704 587.559L511.704 635.314V282.314" stroke="#0c3522" stroke-width="25" stroke-linecap="round" stroke-linejoin="round"/>
<path d="M864.796 260.314L880.5 404.5M800 607L520.704 635.314" stroke="#0c3522" stroke-width="25" stroke-linecap="round" stroke-linejoin="round"/>
<path d="M729.5 378.948L716.255 378.948C675.082 378.948 641.704 412.326 641.704 453.499V455.235C641.704 476.893 651.596 497.365 668.563 510.825V510.825C692.31 529.663 725.4 531.337 750.926 514.991L754.938 512.422C777.224 498.151 790.704 473.511 790.704 447.048V436.448" stroke="#0c3522" stroke-width="25" stroke-linecap="round" stroke-linejoin="round"/>
<path d="M878.391 566.172C860.804 558.228 845.2 552.496 825.321 555.573C809.774 557.98 805.542 575.351 814.728 586.25C822.03 594.912 832.582 595.679 840.549 602.425C840.739 602.586 827.628 611.158 827.022 611.712C814.672 623 801.911 641.177 800.314 658.437C799.154 670.979 822.679 689.382 833.054 694.07C861.602 706.966 904.1 713.7 926.917 687.014C951.339 658.452 934.109 626.907 923.016 597.531" stroke="#0c3522" stroke-width="26" stroke-linecap="round"/>
<path d="M345.693 389.486C341.272 388.722 336.033 390.312 332.43 392.893C328.071 396.014 327.117 400.771 323.893 404.572C315.852 414.053 300.024 397.775 290.087 407.149C277.855 418.688 289.504 437.249 300.68 444.843C303.686 446.885 312.624 453.158 316.616 450.274C318.776 448.713 320.42 446.166 321.99 444.045" stroke="#0c3522" stroke-width="17" stroke-linecap="round"/>
<path d="M232.704 372.656C261.149 371.63 291.623 367.853 318.704 380.314" stroke="#0c3522" stroke-width="17" stroke-linecap="round"/>
<path d="M367.704 396.339C370.945 396.27 373.652 396.334 377.055 396.685C399.549 399.006 422.588 402.624 443.98 409.979C447.922 411.335 451.962 413.004 455.087 415.805C455.395 416.082 455.349 416.141 455.704 416.314" stroke="#0c3522" stroke-width="17" stroke-linecap="round"/>
<path d="M391.579 396.735C385.944 377.999 383.858 351.71 403.847 340.955C412.438 336.333 425.426 332.738 434.722 337.714C440.817 340.976 446.31 348.906 449.087 355.033C452.32 362.166 453.069 370.173 452.557 377.916C452.055 385.511 449.045 391.308 443.881 396.784C440.64 400.219 436.79 403.215 433.228 406.314" stroke="#0c3522" stroke-width="17" stroke-linecap="round"/>
<path d="M251.663 371.282C247.241 366.957 245.262 359.968 243.272 354.246C238.422 340.3 238.449 323.756 243.769 309.899C247.784 299.44 257.565 297.273 267.665 297.315C276.967 297.353 286.294 300.094 293.83 305.737C298.646 309.343 301.789 314.074 303.899 319.741C307.35 329.014 309.919 340.341 308.106 350.252C306.756 357.63 302.938 364.302 299.36 370.753C298.605 372.114 297.954 373.403 296.76 374.314" stroke="#0c3522" stroke-width="17" stroke-linecap="round"/>
<path d="M252.704 368.314C255.865 366.644 258.354 362.235 260.286 359.401C265.083 352.368 270.586 344.549 272.781 336.047C274.904 327.826 274.318 318.425 274.597 309.986C274.7 306.852 274.981 304.706 273.849 302.314" stroke="#0c3522" stroke-width="17" stroke-linecap="round"/>
<path d="M393.704 397.314C411.96 386.595 420.704 364.253 420.704 344.314" stroke="#0c3522" stroke-width="17" stroke-linecap="round"/>
<path d="M322.194 472.929C310.27 479.706 293.595 487.338 282.52 475.985C278.734 472.104 274.765 466.976 269.323 465.458C265.33 464.343 263.132 469.997 261.889 472.759C258.146 481.08 253.894 493.516 263.894 499.078C265.617 500.036 268.479 500.796 269.239 502.898C270.601 506.667 269.391 512.88 267.903 516.398C265.221 522.737 256.69 528.143 261.388 535.67C264.447 540.571 267.462 541.769 272.914 542.462C276.725 542.946 282.686 544.815 285.109 540.764C287.902 536.093 288.142 530.906 290.037 525.991C291.483 522.239 295.386 519.443 298.723 517.586C302.607 515.426 306.16 515.931 310.417 515.718C316.04 515.437 321.455 513.017 326.704 511.134" stroke="#0c3522" stroke-width="17" stroke-linecap="round"/>
<path d="M366 651C352.424 703.208 321.479 725.151 325.329 766.326C327.231 786.667 342.922 801.245 342.922 822" stroke="#0c3522" stroke-width="88" stroke-linecap="square"/>
<path d="M656 670C665.602 722.208 687.49 744.151 684.767 785.326C683.422 805.667 672.323 820.245 672.323 841" stroke="#0c3522" stroke-width="88" stroke-linecap="square"/>
<path d="M378.829 853.141C363.091 852.654 291.171 857.063 278.038 849.69C265.644 842.731 253.898 838.652 238.271 837.687C228.114 837.059 216.052 836.114 206.275 838.799C196.312 841.534 189.747 848.932 184.995 855.711C177.95 865.757 173.847 882.06 177.173 893.33C181.623 908.406 193.474 917.653 211.303 923.894C245.606 935.903 284.16 935.275 320.903 931.832C346.869 929.399 404.236 928.236 430.106 925.327C445.125 923.638 440.242 918.799 440.242 899.44C440.242 883.683 437.483 879.137 434.465 866.295C430.736 850.424 399.125 853.141 383.576 853.141" stroke="#0c3522" stroke-width="26" stroke-linecap="round"/>
<path d="M646.576 872.141C657.86 871.654 709.424 876.063 718.84 868.69C727.727 861.731 736.148 857.652 747.353 856.687C754.635 856.059 763.283 855.114 770.294 857.799C777.437 860.534 782.144 867.932 785.551 874.711C790.602 884.757 793.544 901.06 791.159 912.33C787.969 927.406 779.471 936.653 766.689 942.894C742.094 954.903 714.451 954.275 688.107 950.832C669.49 948.399 628.359 947.236 609.811 944.327C599.043 942.638 602.544 937.799 602.544 918.44C602.544 902.683 604.522 898.137 606.685 885.295C609.359 869.424 632.024 872.141 643.172 872.141" stroke="#0c3522" stroke-width="26" stroke-linecap="round"/>
<path d="M35.2102 289.556C36.2681 309.818 41.3065 329.672 50.0377 347.987C58.7689 366.301 71.0219 382.717 86.0971 396.296C101.172 409.875 118.774 420.352 137.899 427.128C157.023 433.905 177.294 436.848 197.556 435.79L193.601 360.046C183.286 360.585 172.966 359.086 163.231 355.637C153.495 352.187 144.534 346.853 136.859 339.94C129.185 333.028 122.947 324.671 118.502 315.347C114.057 306.024 111.492 295.916 110.954 285.601L35.2102 289.556Z" fill="#0c3522"/>
<path d="M930.4 610.171C953.386 576.25 961.956 534.587 954.225 494.347C946.493 454.107 923.092 418.587 889.171 395.6C855.25 372.614 813.587 364.044 773.347 371.775C745.643 377.099 720.176 389.849 699.496 408.346C683.884 422.309 688.656 446.354 705.994 458.103V458.103C723.333 469.852 746.822 464.129 765.272 454.215C772.225 450.479 779.764 447.777 787.659 446.26C808.144 442.324 829.354 446.686 846.623 458.389C863.891 470.091 875.804 488.173 879.74 508.659C883.676 529.144 879.313 550.354 867.611 567.623L930.4 610.171Z" fill="#0c3522"/>
<path d="M38.927 297.916C22.2717 285.36 10.8684 270.902 10.3488 249.338C9.99554 234.679 8.93907 224.17 21.5415 214.397C24.7789 211.886 30.689 209.624 33.5864 206.727C35.0543 205.259 29.6 189.64 29.382 188.034C26.2622 165.054 28.2689 139.399 41.3133 119.515C52.1783 102.952 62.5639 130.388 64.6077 138.605C69.1752 156.968 69.3569 176.622 70.5733 195.477C70.7585 198.348 71.5059 189.799 71.9369 186.955C74.6183 169.257 76.9452 150.263 84.1523 133.719C88.2761 124.252 100.013 112.211 108.015 125.423C118.228 142.286 114.851 170.166 109.037 187.807C106.315 196.07 102.882 202.809 102.39 211.67C102.224 214.663 97.3896 222.722 102.674 221.783C111.87 220.148 120.503 216.011 129.718 214.283C136.551 213.002 135.872 220.841 136.025 225.817C136.494 241.05 126.17 256.26 118.753 268.94C113.045 278.698 107.513 289.245 100.288 297.916" stroke="#0c3522" stroke-width="19" stroke-linecap="round"/>
<path d="M560.194 135.639C569.377 118.584 576.655 100.322 582.906 82.0172C582.976 81.8141 589.782 54.0378 592.485 55.5518C594.91 56.9097 602.262 63.8795 602.854 64.4394C614.17 75.1422 624.973 86.3693 636.38 96.9781C643.505 103.604 650.769 109.813 658.846 115.198" stroke="#0c3522" stroke-width="19" stroke-linecap="round"/>
<path d="M679.288 133.862C694.198 144.691 708.392 156.15 722.146 168.425C723.037 169.219 744.064 185.498 743.378 188.471C743.043 189.922 740.595 189.581 739.131 189.854C733.285 190.945 723.065 192.045 718.097 192.619C694.746 195.317 671.48 198.342 648.181 201.408" stroke="#0c3522" stroke-width="19" stroke-linecap="round"/>
<path d="M604.632 213.85C593.06 215.465 581.767 218.507 570.118 219.776C559.442 220.938 548.699 220.961 537.974 220.961C533.308 220.961 551.044 169.968 553.5 166" stroke="#0c3522" stroke-width="19" stroke-linecap="round"/>
<path d="M535 155L574.106 169.22" stroke="#0c3522" stroke-width="19" stroke-linecap="round"/>
<path d="M625.709 182.04C635.055 193.379 644.053 205.277 653.67 216.267" stroke="#0c3522" stroke-width="19" stroke-linecap="round"/>
<path d="M669.857 102.578C662.443 112.553 653.599 121.389 645.077 130.412" stroke="#0c3522" stroke-width="19" stroke-linecap="round"/>
</svg>
