<svg width="417" height="418" viewBox="0 0 417 418" fill="none" xmlns="http://www.w3.org/2000/svg">
<path fill-rule="evenodd" clip-rule="evenodd" d="M354.05 258.237C330.863 273.73 303.602 282 275.714 282V211.376C289.633 211.376 303.24 207.248 314.813 199.515C326.386 191.782 335.407 180.791 340.733 167.932C346.06 155.072 347.453 140.922 344.738 127.27C342.022 113.619 335.32 101.079 325.478 91.2368C315.635 81.3945 303.096 74.6919 289.444 71.9764C275.792 69.261 261.642 70.6547 248.783 75.9812C235.923 81.3079 224.932 90.328 217.199 101.901C209.466 113.474 205.339 127.081 205.339 141H134.714C134.714 113.113 142.984 85.8519 158.477 62.6645C173.971 39.4772 195.992 21.4049 221.756 10.7329C247.521 0.0610287 275.871 -2.73133 303.222 2.70922C330.573 8.14977 355.697 21.5787 375.417 41.298C395.136 61.0171 408.565 86.141 414.005 113.492C419.446 140.844 416.653 169.194 405.981 194.958C395.309 220.723 377.237 242.744 354.05 258.237ZM0.00012207 147.401H85.0001V332.401L270 332.401L270 417.401L85 417.401H0L0.00012207 332.401V147.401Z" fill="#1A854B"/>
</svg>
